<svg width="556" height="566" viewBox="0 0 556 566" fill="none" xmlns="http://www.w3.org/2000/svg">
<path d="M454.666 295.746C454.666 330.958 445.657 349.308 434.544 349.308C423.427 349.308 414.417 330.958 414.417 295.746C414.417 260.532 423.427 221.789 434.544 221.789C445.657 221.789 454.666 260.532 454.666 295.746Z" fill="#DBEDFF" stroke="#007DEA" stroke-width="0.75" stroke-miterlimit="10" stroke-linecap="round" stroke-linejoin="round"/>
<path d="M434.544 221.789V349.308" stroke="#007DEA" stroke-width="0.5" stroke-miterlimit="10" stroke-linecap="round" stroke-linejoin="round"/>
<path d="M416.805 323.56L434.544 340.573L452.278 323.564" stroke="#007DEA" stroke-width="0.5" stroke-miterlimit="10" stroke-linecap="round" stroke-linejoin="round"/>
<path d="M414.463 291.557L434.543 310.819L454.624 291.559" stroke="#007DEA" stroke-width="0.5" stroke-miterlimit="10" stroke-linecap="round" stroke-linejoin="round"/>
<path d="M416.699 263.953L434.544 281.067L452.38 263.959" stroke="#007DEA" stroke-width="0.5" stroke-miterlimit="10" stroke-linecap="round" stroke-linejoin="round"/>
<path d="M422.091 239.369L434.544 251.316L446.989 239.375" stroke="#007DEA" stroke-width="0.5" stroke-miterlimit="10" stroke-linecap="round" stroke-linejoin="round"/>
<path d="M414.343 302.998C425.674 330.29 424.599 347.183 415.982 350.473C407.368 353.762 394.478 342.209 383.147 314.912C371.814 287.616 366.329 254.918 374.946 251.627C383.563 248.337 403.012 275.703 414.343 302.998Z" fill="white" stroke="#007DEA" stroke-width="0.75" stroke-miterlimit="10" stroke-linecap="round" stroke-linejoin="round"/>
<path d="M374.946 251.629L415.982 350.475" stroke="#007DEA" stroke-width="0.5" stroke-miterlimit="10" stroke-linecap="round" stroke-linejoin="round"/>
<path d="M393.946 335.768L413.173 343.705L421.447 325.266" stroke="#007DEA" stroke-width="0.5" stroke-miterlimit="10" stroke-linecap="round" stroke-linejoin="round"/>
<path d="M381.831 311.654L403.596 320.639L412.965 299.765" stroke="#007DEA" stroke-width="0.5" stroke-miterlimit="10" stroke-linecap="round" stroke-linejoin="round"/>
<path d="M374.682 289.596L394.023 297.58L402.344 279.036" stroke="#007DEA" stroke-width="0.5" stroke-miterlimit="10" stroke-linecap="round" stroke-linejoin="round"/>
<path d="M370.951 268.943L384.448 274.515L390.252 261.575" stroke="#007DEA" stroke-width="0.5" stroke-miterlimit="10" stroke-linecap="round" stroke-linejoin="round"/>
<path d="M450.177 310.309C440.519 333.577 441.436 347.981 448.781 350.784C456.126 353.59 467.114 343.738 476.776 320.468C486.436 297.197 491.11 269.321 483.765 266.517C476.423 263.712 459.842 287.04 450.177 310.309Z" fill="white" stroke="#007DEA" stroke-width="0.75" stroke-miterlimit="10" stroke-linecap="round" stroke-linejoin="round"/>
<path d="M483.768 266.517L448.783 350.784" stroke="#007DEA" stroke-width="0.5" stroke-miterlimit="10" stroke-linecap="round" stroke-linejoin="round"/>
<path d="M467.571 338.248L451.177 345.014L444.123 329.295" stroke="#007DEA" stroke-width="0.5" stroke-miterlimit="10" stroke-linecap="round" stroke-linejoin="round"/>
<path d="M477.898 317.691L459.343 325.35L451.356 307.556" stroke="#007DEA" stroke-width="0.5" stroke-miterlimit="10" stroke-linecap="round" stroke-linejoin="round"/>
<path d="M483.992 298.884L467.503 305.69L460.409 289.881" stroke="#007DEA" stroke-width="0.5" stroke-miterlimit="10" stroke-linecap="round" stroke-linejoin="round"/>
<path d="M487.172 281.277L475.666 286.027L470.716 274.997" stroke="#007DEA" stroke-width="0.5" stroke-miterlimit="10" stroke-linecap="round" stroke-linejoin="round"/>
<path d="M397.331 341.769H471.754L489.888 412.175H379.198L397.331 341.769Z" fill="white"/>
<path d="M397.331 341.769H412.965L451.356 412.175H379.198L397.331 341.769Z" fill="#DBEDFF"/>
<path d="M397.331 341.769H471.754L489.888 412.175H379.198L397.331 341.769Z" stroke="#007DEA" stroke-width="0.75" stroke-miterlimit="10" stroke-linecap="round" stroke-linejoin="round"/>
<path d="M218.983 332.764L252.779 254.793H164.911L131.118 332.764H218.983Z" fill="#DBEDFF" stroke="#007DEA" stroke-width="0.75" stroke-miterlimit="10" stroke-linecap="round" stroke-linejoin="round"/>
<path d="M132.226 332.764L166.023 254.793H159.148L125.353 332.764H132.226Z" fill="white" stroke="#007DEA" stroke-width="0.75" stroke-miterlimit="10" stroke-linecap="round" stroke-linejoin="round"/>
<path d="M332.724 205.111C336.224 205.111 339.496 207.829 340.021 211.188L358.192 326.686C358.722 330.045 356.309 332.766 352.809 332.766H174.663C171.163 332.766 167.898 330.045 167.37 326.686L149.199 211.188C148.671 207.829 151.08 205.111 154.58 205.111H332.724Z" fill="#DBEDFF" stroke="#007DEA" stroke-width="0.75" stroke-miterlimit="10" stroke-linecap="round" stroke-linejoin="round"/>
<path d="M339.882 205.111C343.384 205.111 346.647 207.829 347.179 211.188L365.35 326.686C365.88 330.045 363.469 332.766 359.967 332.766H181.819C178.319 332.766 175.054 330.045 174.526 326.686L156.353 211.188C155.825 207.829 158.234 205.111 161.732 205.111H339.882Z" fill="white" stroke="#007DEA" stroke-width="0.75" stroke-miterlimit="10" stroke-linecap="round" stroke-linejoin="round"/>
<path d="M182.97 329.241H351.712L332.733 208.628H163.993L182.97 329.241Z" fill="#007DEA"/>
<path d="M343.879 267.424L344.355 270.45C344.614 272.122 346.24 273.48 347.981 273.48H351.14C352.886 273.48 354.083 272.122 353.819 270.45L353.343 267.424C353.082 265.755 351.456 264.393 349.711 264.393H346.554C344.812 264.393 343.615 265.755 343.879 267.424Z" fill="#DBEDFF" stroke="#007DEA" stroke-width="0.5" stroke-miterlimit="10" stroke-linecap="round" stroke-linejoin="round"/>
<path d="M290.838 240.748L259.55 231.117C257.514 230.489 254.334 230.489 252.49 231.117L224.138 240.748C222.288 241.372 222.448 242.401 224.485 243.027L255.772 252.659C257.807 253.283 260.987 253.283 262.832 252.659L291.185 243.027C293.03 242.401 292.876 241.372 290.838 240.748Z" fill="white"/>
<path d="M256.109 254.87L235.502 248.529L237.156 259.384C237.458 261.347 239.368 263.47 241.407 264.098L258.308 269.3C260.344 269.926 263.522 269.926 265.37 269.3L280.683 264.098C282.531 263.47 283.796 261.347 283.499 259.384L281.845 248.529L263.173 254.87C261.323 255.498 258.146 255.498 256.109 254.87Z" fill="white"/>
<path d="M224.266 286.678L223.477 281.496H225.248C225.66 281.496 226.007 281.569 226.29 281.716C226.575 281.861 226.8 282.057 226.964 282.305C227.128 282.553 227.233 282.83 227.28 283.135C227.326 283.441 227.305 283.718 227.217 283.968C227.13 284.218 226.968 284.417 226.729 284.565C226.49 284.712 226.167 284.785 225.759 284.785H224.49L224.405 284.229H225.654C225.936 284.229 226.154 284.181 226.31 284.084C226.466 283.988 226.57 283.858 226.622 283.695C226.676 283.529 226.687 283.343 226.655 283.135C226.623 282.928 226.556 282.742 226.453 282.579C226.351 282.415 226.207 282.287 226.02 282.194C225.834 282.1 225.598 282.052 225.313 282.052H224.197L224.9 286.678H224.266ZM230.244 283.809L230.329 284.365H228.036L227.951 283.809H230.244ZM231.826 286.678L231.037 281.496H231.672L232.376 286.122H234.813L234.898 286.678H231.826ZM239.706 284.087C239.789 284.634 239.761 285.106 239.622 285.504C239.483 285.902 239.255 286.209 238.94 286.425C238.625 286.641 238.244 286.749 237.797 286.749C237.349 286.749 236.935 286.641 236.554 286.425C236.173 286.209 235.853 285.902 235.593 285.504C235.332 285.106 235.161 284.634 235.077 284.087C234.994 283.54 235.022 283.068 235.161 282.67C235.3 282.272 235.528 281.965 235.843 281.749C236.158 281.533 236.539 281.425 236.986 281.425C237.434 281.425 237.848 281.533 238.229 281.749C238.61 281.965 238.93 282.272 239.19 282.67C239.451 283.068 239.622 283.54 239.706 284.087ZM239.091 284.087C239.023 283.638 238.889 283.259 238.691 282.951C238.493 282.642 238.254 282.408 237.972 282.25C237.692 282.091 237.393 282.012 237.076 282.012C236.758 282.012 236.483 282.091 236.249 282.25C236.018 282.408 235.849 282.642 235.744 282.951C235.641 283.259 235.624 283.638 235.692 284.087C235.76 284.536 235.893 284.915 236.09 285.223C236.289 285.532 236.528 285.766 236.808 285.924C237.09 286.083 237.39 286.162 237.707 286.162C238.025 286.162 238.299 286.083 238.531 285.924C238.765 285.766 238.933 285.532 239.036 285.223C239.141 284.915 239.16 284.536 239.091 284.087ZM241.167 286.678L240.379 281.496H242.15C242.56 281.496 242.906 281.565 243.19 281.703C243.474 281.84 243.697 282.028 243.86 282.267C244.023 282.507 244.127 282.779 244.174 283.085C244.22 283.39 244.198 283.661 244.108 283.897C244.017 284.133 243.852 284.319 243.611 284.454C243.371 284.587 243.047 284.654 242.641 284.654H241.207L241.121 284.087H242.534C242.814 284.087 243.033 284.047 243.191 283.966C243.352 283.885 243.459 283.77 243.513 283.621C243.568 283.471 243.581 283.292 243.549 283.085C243.517 282.877 243.451 282.696 243.348 282.541C243.246 282.386 243.103 282.266 242.917 282.181C242.732 282.095 242.498 282.052 242.214 282.052H241.098L241.802 286.678H241.167ZM243.281 284.35L244.925 286.678H244.188L242.564 284.35H243.281ZM245.778 286.678L244.99 281.496H248.154L248.238 282.052H245.709L245.976 283.804H248.341L248.426 284.36H246.06L246.328 286.122H248.898L248.983 286.678H245.778ZM249.298 281.496H250.055L252.492 285.798H252.553L253.68 281.496H254.438L255.226 286.678H254.632L254.033 282.741H253.982L252.943 286.678H252.37L250.132 282.741H250.081L250.68 286.678H250.086L249.298 281.496Z" fill="white"/>
<path d="M241.078 298.647L241.867 303.83H241.232L240.443 298.647H241.078ZM246.508 298.647L247.297 303.83H246.683L243.206 299.761H243.155L243.775 303.83H243.14L242.35 298.647H242.965L246.453 302.727H246.504L245.883 298.647H246.508ZM248.567 303.83L247.778 298.647H249.549C249.961 298.647 250.308 298.721 250.591 298.868C250.876 299.013 251.101 299.209 251.265 299.457C251.429 299.705 251.534 299.982 251.581 300.287C251.627 300.593 251.606 300.87 251.518 301.12C251.432 301.369 251.269 301.569 251.031 301.717C250.792 301.864 250.469 301.937 250.061 301.937H248.791L248.706 301.38H249.955C250.237 301.38 250.456 301.332 250.612 301.236C250.768 301.14 250.872 301.01 250.924 300.846C250.977 300.681 250.988 300.495 250.956 300.287C250.924 300.08 250.857 299.894 250.754 299.73C250.652 299.567 250.508 299.439 250.321 299.346C250.134 299.251 249.899 299.204 249.614 299.204H248.497L249.202 303.83H248.567ZM255.794 298.647H256.429L256.951 302.079C257.005 302.433 256.969 302.749 256.843 303.028C256.718 303.305 256.514 303.523 256.233 303.683C255.952 303.842 255.606 303.921 255.195 303.921C254.783 303.921 254.413 303.842 254.083 303.683C253.753 303.523 253.483 303.305 253.272 303.028C253.062 302.749 252.93 302.433 252.876 302.079L252.353 298.647H252.988L253.503 302.028C253.542 302.281 253.633 302.507 253.775 302.704C253.918 302.9 254.102 303.054 254.327 303.167C254.554 303.278 254.813 303.334 255.105 303.334C255.397 303.334 255.639 303.278 255.832 303.167C256.025 303.054 256.162 302.9 256.243 302.704C256.325 302.507 256.347 302.281 256.309 302.028L255.794 298.647ZM257.495 299.204L257.41 298.647H261.342L261.426 299.204H259.778L260.483 303.83H259.848L259.143 299.204H257.495Z" fill="white"/>
<path d="M221.374 337.63V370.737C221.072 370.771 220.754 370.785 220.434 370.785H99.5542V337.582H220.432C220.754 337.582 221.072 337.598 221.374 337.63Z" fill="white"/>
<path d="M99.5542 339.763H221.374" stroke="#BDDEFF" stroke-width="0.25" stroke-miterlimit="10" stroke-linecap="round" stroke-linejoin="round"/>
<path d="M99.5542 341.677H221.374" stroke="#BDDEFF" stroke-width="0.25" stroke-miterlimit="10" stroke-linecap="round" stroke-linejoin="round"/>
<path d="M99.5542 343.591H221.374" stroke="#BDDEFF" stroke-width="0.25" stroke-miterlimit="10" stroke-linecap="round" stroke-linejoin="round"/>
<path d="M99.5542 345.505H221.374" stroke="#BDDEFF" stroke-width="0.25" stroke-miterlimit="10" stroke-linecap="round" stroke-linejoin="round"/>
<path d="M99.5542 347.42H221.374" stroke="#BDDEFF" stroke-width="0.25" stroke-miterlimit="10" stroke-linecap="round" stroke-linejoin="round"/>
<path d="M99.5542 349.332H221.374" stroke="#BDDEFF" stroke-width="0.25" stroke-miterlimit="10" stroke-linecap="round" stroke-linejoin="round"/>
<path d="M99.5542 351.248H221.374" stroke="#BDDEFF" stroke-width="0.25" stroke-miterlimit="10" stroke-linecap="round" stroke-linejoin="round"/>
<path d="M99.5542 353.162H221.374" stroke="#BDDEFF" stroke-width="0.25" stroke-miterlimit="10" stroke-linecap="round" stroke-linejoin="round"/>
<path d="M99.5542 355.078H221.374" stroke="#BDDEFF" stroke-width="0.25" stroke-miterlimit="10" stroke-linecap="round" stroke-linejoin="round"/>
<path d="M99.5542 356.989H221.374" stroke="#BDDEFF" stroke-width="0.25" stroke-miterlimit="10" stroke-linecap="round" stroke-linejoin="round"/>
<path d="M99.5542 358.903H221.374" stroke="#BDDEFF" stroke-width="0.25" stroke-miterlimit="10" stroke-linecap="round" stroke-linejoin="round"/>
<path d="M99.5542 360.819H221.374" stroke="#BDDEFF" stroke-width="0.25" stroke-miterlimit="10" stroke-linecap="round" stroke-linejoin="round"/>
<path d="M99.5542 362.733H221.374" stroke="#BDDEFF" stroke-width="0.25" stroke-miterlimit="10" stroke-linecap="round" stroke-linejoin="round"/>
<path d="M99.5542 364.647H221.374" stroke="#BDDEFF" stroke-width="0.25" stroke-miterlimit="10" stroke-linecap="round" stroke-linejoin="round"/>
<path d="M99.5542 366.562H221.374" stroke="#BDDEFF" stroke-width="0.25" stroke-miterlimit="10" stroke-linecap="round" stroke-linejoin="round"/>
<path d="M99.5542 368.476H221.374" stroke="#BDDEFF" stroke-width="0.25" stroke-miterlimit="10" stroke-linecap="round" stroke-linejoin="round"/>
<path d="M231.019 347.735C231.019 342.451 226.779 338.079 221.372 337.632C221.07 337.598 220.752 337.584 220.432 337.584H99.5542H93.1384V332.764H219.295H220.432C229.057 332.764 236.045 339.462 236.045 347.737V360.636C236.045 368.911 229.059 375.609 220.432 375.609H219.295H93.1384V370.789H99.5542H220.432C220.752 370.789 221.072 370.775 221.372 370.741C226.779 370.292 231.019 365.921 231.019 360.638V347.735Z" fill="#DBEDFF"/>
<path d="M231.019 347.735V360.634C231.019 365.917 226.779 370.29 221.371 370.737V337.63C226.779 338.079 231.019 342.449 231.019 347.735Z" fill="#DBEDFF"/>
<path d="M398.356 347.735V360.634C398.356 368.909 391.373 375.607 382.764 375.607H220.434C229.059 375.607 236.047 368.911 236.047 360.634V347.735C236.047 339.462 229.061 332.762 220.434 332.762H382.764C391.371 332.762 398.356 339.46 398.356 347.735Z" fill="white"/>
<path d="M255.213 332.762C263.838 332.762 270.825 339.46 270.825 347.735V360.634C270.825 368.909 263.84 375.607 255.213 375.607H240.804C249.429 375.607 256.416 368.911 256.416 360.634V347.735C256.416 339.462 249.431 332.762 240.804 332.762H255.213Z" fill="#DBEDFF"/>
<path d="M384.884 332.329H373.516V375.605H384.884V332.329Z" fill="#DBEDFF"/>
<path d="M220.432 375.605C229.057 375.605 236.044 368.909 236.044 360.632V347.733C236.044 339.46 229.059 332.76 220.432 332.76" stroke="#007DEA" stroke-width="0.75" stroke-miterlimit="10" stroke-linecap="round" stroke-linejoin="round"/>
<path d="M240.804 375.605C249.429 375.605 256.416 368.909 256.416 360.632V347.733C256.416 339.46 249.431 332.76 240.804 332.76" stroke="#007DEA" stroke-width="0.75" stroke-miterlimit="10" stroke-linecap="round" stroke-linejoin="round"/>
<path d="M255.213 375.605C263.838 375.605 270.825 368.909 270.825 360.632V347.733C270.825 339.46 263.84 332.76 255.213 332.76" stroke="#007DEA" stroke-width="0.75" stroke-miterlimit="10" stroke-linecap="round" stroke-linejoin="round"/>
<path d="M219.297 332.761H93.1384V337.582H99.5542H220.432C220.752 337.582 221.072 337.598 221.372 337.629C226.779 338.078 231.019 342.448 231.019 347.733V360.631C231.019 365.914 226.779 370.288 221.372 370.734C221.07 370.768 220.752 370.782 220.432 370.782H99.5542H93.1384V375.602H219.295" stroke="#007DEA" stroke-width="0.75" stroke-miterlimit="10" stroke-linecap="round" stroke-linejoin="round"/>
<path d="M219.297 375.605H220.434H382.764C391.373 375.605 398.356 368.909 398.356 360.632V347.733C398.356 339.46 391.373 332.76 382.764 332.76H220.434H219.297" stroke="#007DEA" stroke-width="0.75" stroke-miterlimit="10" stroke-linecap="round" stroke-linejoin="round"/>
<path d="M221.374 337.63V370.737" stroke="#007DEA" stroke-width="0.75" stroke-miterlimit="10" stroke-linecap="round" stroke-linejoin="round"/>
<path d="M99.5542 337.582V370.785" stroke="#007DEA" stroke-width="0.75" stroke-miterlimit="10" stroke-linecap="round" stroke-linejoin="round"/>
<path d="M241.743 380.689V413.795C241.442 413.831 241.124 413.843 240.804 413.843H119.926V380.641H240.804C241.126 380.641 241.444 380.655 241.743 380.689Z" fill="white"/>
<path d="M119.926 382.82H241.743" stroke="#BDDEFF" stroke-width="0.25" stroke-miterlimit="10" stroke-linecap="round" stroke-linejoin="round"/>
<path d="M119.926 384.734H241.743" stroke="#BDDEFF" stroke-width="0.25" stroke-miterlimit="10" stroke-linecap="round" stroke-linejoin="round"/>
<path d="M119.926 386.647H241.743" stroke="#BDDEFF" stroke-width="0.25" stroke-miterlimit="10" stroke-linecap="round" stroke-linejoin="round"/>
<path d="M119.926 388.561H241.743" stroke="#BDDEFF" stroke-width="0.25" stroke-miterlimit="10" stroke-linecap="round" stroke-linejoin="round"/>
<path d="M119.926 390.477H241.743" stroke="#BDDEFF" stroke-width="0.25" stroke-miterlimit="10" stroke-linecap="round" stroke-linejoin="round"/>
<path d="M119.926 392.391H241.743" stroke="#BDDEFF" stroke-width="0.25" stroke-miterlimit="10" stroke-linecap="round" stroke-linejoin="round"/>
<path d="M119.926 394.307H241.743" stroke="#BDDEFF" stroke-width="0.25" stroke-miterlimit="10" stroke-linecap="round" stroke-linejoin="round"/>
<path d="M119.926 396.22H241.743" stroke="#BDDEFF" stroke-width="0.25" stroke-miterlimit="10" stroke-linecap="round" stroke-linejoin="round"/>
<path d="M119.926 398.136H241.743" stroke="#BDDEFF" stroke-width="0.25" stroke-miterlimit="10" stroke-linecap="round" stroke-linejoin="round"/>
<path d="M119.926 400.048H241.743" stroke="#BDDEFF" stroke-width="0.25" stroke-miterlimit="10" stroke-linecap="round" stroke-linejoin="round"/>
<path d="M119.926 401.962H241.743" stroke="#BDDEFF" stroke-width="0.25" stroke-miterlimit="10" stroke-linecap="round" stroke-linejoin="round"/>
<path d="M119.926 403.878H241.743" stroke="#BDDEFF" stroke-width="0.25" stroke-miterlimit="10" stroke-linecap="round" stroke-linejoin="round"/>
<path d="M119.926 405.791H241.743" stroke="#BDDEFF" stroke-width="0.25" stroke-miterlimit="10" stroke-linecap="round" stroke-linejoin="round"/>
<path d="M119.926 407.705H241.743" stroke="#BDDEFF" stroke-width="0.25" stroke-miterlimit="10" stroke-linecap="round" stroke-linejoin="round"/>
<path d="M119.926 409.621H241.743" stroke="#BDDEFF" stroke-width="0.25" stroke-miterlimit="10" stroke-linecap="round" stroke-linejoin="round"/>
<path d="M119.926 411.535H241.743" stroke="#BDDEFF" stroke-width="0.25" stroke-miterlimit="10" stroke-linecap="round" stroke-linejoin="round"/>
<path d="M251.391 390.792C251.391 385.507 247.151 381.135 241.743 380.689C241.442 380.655 241.124 380.641 240.804 380.641H119.926H113.51V375.82H239.667H240.804C249.429 375.82 256.416 382.519 256.416 390.794V403.692C256.416 411.967 249.431 418.666 240.804 418.666H239.667H113.51V413.845H119.926H240.804C241.124 413.845 241.444 413.831 241.743 413.797C247.151 413.349 251.391 408.977 251.391 403.694V390.792Z" fill="#DBEDFF"/>
<path d="M251.391 390.792V403.69C251.391 408.973 247.151 413.347 241.743 413.793V380.687C247.151 381.137 251.391 385.507 251.391 390.792Z" fill="#DBEDFF"/>
<path d="M418.728 390.792V403.69C418.728 411.965 411.745 418.664 403.136 418.664H240.806C249.431 418.664 256.418 411.967 256.418 403.69V390.792C256.418 382.519 249.433 375.818 240.806 375.818H403.136C411.743 375.82 418.728 382.519 418.728 390.792Z" fill="white"/>
<path d="M275.585 375.82C284.21 375.82 291.197 382.519 291.197 390.794V403.692C291.197 411.967 284.212 418.666 275.585 418.666H261.176C269.801 418.666 276.788 411.969 276.788 403.692V390.794C276.788 382.521 269.803 375.82 261.176 375.82H275.585Z" fill="#DBEDFF"/>
<path d="M387.515 375.388H376.147V418.664H387.515V375.388Z" fill="#DBEDFF"/>
<path d="M240.804 418.664C249.429 418.664 256.416 411.967 256.416 403.69V390.792C256.416 382.519 249.431 375.818 240.804 375.818" stroke="#007DEA" stroke-width="0.75" stroke-miterlimit="10" stroke-linecap="round" stroke-linejoin="round"/>
<path d="M261.176 418.664C269.801 418.664 276.788 411.967 276.788 403.69V390.792C276.788 382.519 269.803 375.818 261.176 375.818" stroke="#007DEA" stroke-width="0.75" stroke-miterlimit="10" stroke-linecap="round" stroke-linejoin="round"/>
<path d="M275.585 418.664C284.21 418.664 291.197 411.967 291.197 403.69V390.792C291.197 382.519 284.212 375.818 275.585 375.818" stroke="#007DEA" stroke-width="0.75" stroke-miterlimit="10" stroke-linecap="round" stroke-linejoin="round"/>
<path d="M239.667 375.82H113.51V380.64H119.926H240.804C241.124 380.64 241.444 380.656 241.743 380.688C247.151 381.136 251.391 385.506 251.391 390.791V403.689C251.391 408.972 247.151 413.346 241.743 413.793C241.442 413.829 241.124 413.841 240.804 413.841H119.926H113.51V418.661H239.667" stroke="#007DEA" stroke-width="0.75" stroke-miterlimit="10" stroke-linecap="round" stroke-linejoin="round"/>
<path d="M239.667 418.664H240.804H403.134C411.743 418.664 418.726 411.967 418.726 403.69V390.792C418.726 382.519 411.743 375.818 403.134 375.818H240.804H239.667" stroke="#007DEA" stroke-width="0.75" stroke-miterlimit="10" stroke-linecap="round" stroke-linejoin="round"/>
<path d="M241.743 380.689V413.795" stroke="#007DEA" stroke-width="0.75" stroke-miterlimit="10" stroke-linecap="round" stroke-linejoin="round"/>
<path d="M119.926 380.641V413.843" stroke="#007DEA" stroke-width="0.75" stroke-miterlimit="10" stroke-linecap="round" stroke-linejoin="round"/>
<path d="M366.331 301.447C366.443 301.286 366.549 301.154 366.678 301.015C366.718 300.969 366.768 300.917 366.809 300.871C366.863 300.817 366.917 300.758 366.977 300.694C367.42 300.287 367.707 300.036 368.474 299.615C368.605 299.544 368.954 299.38 369.087 299.324C369.494 299.165 369.494 299.165 370.028 299.005C370.188 298.959 370.781 298.798 371.683 298.754C372.3 298.72 372.847 298.802 373.136 298.848C373.996 298.981 375.035 299.434 375.654 299.952C375.827 300.088 376.263 300.455 376.581 300.923C376.862 301.324 377.049 301.657 377.238 302.263L379.564 310.018C379.813 310.859 379.481 311.862 378.504 312.815C376.575 314.693 372.886 315.681 370.263 315.025C368.971 314.701 368.181 314.037 367.936 313.223C367.239 310.897 366.31 307.793 365.61 305.47C365.548 305.221 365.504 305.026 365.473 304.828C365.444 304.635 365.431 304.44 365.425 304.185C365.417 303.826 365.496 303.327 365.566 303.074C365.583 303.018 365.604 302.947 365.627 302.865C365.649 302.791 365.674 302.719 365.701 302.642C365.71 302.616 365.714 302.6 365.724 302.572C365.747 302.522 365.768 302.472 365.784 302.422C365.82 302.351 365.845 302.281 365.886 302.205C365.895 302.181 365.909 302.155 365.92 302.131C365.953 302.067 365.978 302.006 366.019 301.944C366.032 301.918 366.044 301.894 366.063 301.868C366.075 301.846 366.084 301.826 366.098 301.81C366.169 301.679 366.246 301.563 366.331 301.447Z" fill="#FFC830" stroke="#007DEA" stroke-width="0.75" stroke-miterlimit="10" stroke-linecap="round" stroke-linejoin="round"/>
<path d="M409.5 419.254C409.5 419.254 405.876 418.143 403.486 421.156C405.13 423.422 406.613 425.434 407.075 425.964C408.233 427.31 409.471 426.751 409.517 425.159C409.546 424.264 409.534 421.911 409.513 419.252L409.5 419.254Z" fill="#007DEA"/>
<path d="M404.267 407.221L398.579 409.767L398.009 413.53C398.009 413.53 400.927 417.643 403.49 421.156C405.878 418.143 409.504 419.254 409.504 419.254L409.517 419.252C409.469 414.374 409.386 408.421 409.386 408.421L404.267 407.221Z" fill="#DBEDFF"/>
<path d="M375.148 310.636L375.141 310.644L404.267 407.221L409.382 408.421L380.223 311.774L375.148 310.636Z" fill="white"/>
<path d="M375.141 310.644L369.461 313.187L369.459 313.219L398.577 409.767L404.267 407.221L375.141 310.644Z" fill="white"/>
<path d="M369.459 313.219L367.828 307.785L367.256 311.543L368.869 316.931L368.886 316.929L369.459 313.219Z" fill="#DBEDFF"/>
<path d="M373.516 305.233L375.141 310.644L375.148 310.636L380.223 311.774L378.631 306.445L373.516 305.233Z" fill="#DBEDFF"/>
<path d="M367.828 307.785L369.459 313.219L369.461 313.187L375.141 310.644L373.516 305.233L367.828 307.785Z" fill="#DBEDFF"/>
<path d="M368.869 316.931L398.007 413.53L398.577 409.767L369.459 313.219L368.886 316.929L368.869 316.931Z" fill="#DBEDFF"/>
<path d="M367.828 307.785L367.256 311.543L368.869 316.931L398.007 413.53" stroke="#007DEA" stroke-width="0.75" stroke-miterlimit="10" stroke-linecap="round" stroke-linejoin="round"/>
<path d="M373.516 305.233L367.828 307.785L369.459 313.219L398.577 409.767" stroke="#007DEA" stroke-width="0.75" stroke-miterlimit="10" stroke-linecap="round" stroke-linejoin="round"/>
<path d="M409.382 408.421L380.223 311.774L378.631 306.445L373.516 305.233L375.141 310.644L404.267 407.221" stroke="#007DEA" stroke-width="0.75" stroke-miterlimit="10" stroke-linecap="round" stroke-linejoin="round"/>
<path d="M409.382 408.421C409.382 408.421 409.465 414.372 409.513 419.252C409.534 421.911 409.546 424.264 409.517 425.159C409.471 426.751 408.233 427.31 407.075 425.964C406.614 425.432 405.13 423.422 403.486 421.156C400.925 417.641 398.005 413.53 398.005 413.53L398.575 409.767L404.263 407.221L409.382 408.421Z" stroke="#007DEA" stroke-width="0.75" stroke-miterlimit="10" stroke-linecap="round" stroke-linejoin="round"/>
<path d="M409.5 419.254C409.5 419.254 405.876 418.143 403.486 421.156L403.479 421.162" stroke="#007DEA" stroke-width="0.75" stroke-miterlimit="10" stroke-linecap="round" stroke-linejoin="round"/>
<path d="M380.223 311.774L375.148 310.636L375.141 310.644L369.461 313.187L369.459 313.219L368.885 316.929" stroke="#007DEA" stroke-width="0.75" stroke-miterlimit="10" stroke-linecap="round" stroke-linejoin="round"/>
<path d="M136.528 429.068H55.5955L46.0289 318.323H146.113L136.528 429.068Z" fill="white" stroke="#007DEA" stroke-width="0.75" stroke-miterlimit="10" stroke-linecap="round" stroke-linejoin="round"/>
<path d="M147.294 317.119H44.8318L55.1445 291.205H136.962L147.294 317.119Z" fill="#DBEDFF" stroke="#007DEA" stroke-width="0.75" stroke-miterlimit="10" stroke-linecap="round" stroke-linejoin="round"/>
<path d="M154.256 309.874H37.8838V330.214H154.256V309.874Z" fill="#DBEDFF" stroke="#007DEA" stroke-width="0.75" stroke-miterlimit="10" stroke-linecap="round" stroke-linejoin="round"/>
<path d="M43.6221 314.36V325.727" stroke="#007DEA" stroke-width="0.75" stroke-miterlimit="10" stroke-linecap="round" stroke-linejoin="round"/>
<path d="M54.0928 314.36V325.729" stroke="#007DEA" stroke-width="0.75" stroke-miterlimit="10" stroke-linecap="round" stroke-linejoin="round"/>
<path d="M64.5613 314.36V325.727" stroke="#007DEA" stroke-width="0.75" stroke-miterlimit="10" stroke-linecap="round" stroke-linejoin="round"/>
<path d="M75.0319 314.36V325.723" stroke="#007DEA" stroke-width="0.75" stroke-miterlimit="10" stroke-linecap="round" stroke-linejoin="round"/>
<path d="M85.5004 314.36V325.727" stroke="#007DEA" stroke-width="0.75" stroke-miterlimit="10" stroke-linecap="round" stroke-linejoin="round"/>
<path d="M95.969 314.36V325.727" stroke="#007DEA" stroke-width="0.75" stroke-miterlimit="10" stroke-linecap="round" stroke-linejoin="round"/>
<path d="M106.438 314.36V325.727" stroke="#007DEA" stroke-width="0.75" stroke-miterlimit="10" stroke-linecap="round" stroke-linejoin="round"/>
<path d="M116.908 314.36V325.727" stroke="#007DEA" stroke-width="0.75" stroke-miterlimit="10" stroke-linecap="round" stroke-linejoin="round"/>
<path d="M127.377 314.36V325.727" stroke="#007DEA" stroke-width="0.75" stroke-miterlimit="10" stroke-linecap="round" stroke-linejoin="round"/>
<path d="M137.843 314.36V325.727" stroke="#007DEA" stroke-width="0.75" stroke-miterlimit="10" stroke-linecap="round" stroke-linejoin="round"/>
<path d="M148.314 314.36V325.727" stroke="#007DEA" stroke-width="0.75" stroke-miterlimit="10" stroke-linecap="round" stroke-linejoin="round"/>
<path d="M151.149 309.87H40.9908L44.5677 302.939H147.574L151.149 309.87Z" fill="#DBEDFF" stroke="#007DEA" stroke-width="0.75" stroke-miterlimit="10" stroke-linecap="round" stroke-linejoin="round"/>
<path d="M140.95 406.411L146.435 346.43H45.6963L51.181 406.411H140.95Z" fill="#DBEDFF" stroke="#007DEA" stroke-width="0.75" stroke-miterlimit="10" stroke-linecap="round" stroke-linejoin="round"/>
<path d="M94.2712 360.967C87.5581 361.975 82.3644 368.534 82.3644 376.494C82.3644 384.456 87.5561 391.015 94.2712 392.024V360.967Z" fill="#007DEA"/>
<path d="M97.8584 360.967V392.024C104.576 391.015 109.765 384.458 109.765 376.494C109.765 368.534 104.576 361.975 97.8584 360.967Z" fill="#007DEA"/>
<path d="M267.134 157.265C266.054 157.265 264.925 156.87 263.994 156.08C249.055 143.431 227.59 143.431 216.144 156.08C214.717 157.657 212.054 157.657 210.194 156.08C208.33 154.503 207.977 151.95 209.402 150.373C223.693 134.556 250.497 134.572 269.154 150.373C271.017 151.95 271.37 154.503 269.946 156.08C269.233 156.87 268.215 157.265 267.134 157.265Z" fill="white" stroke="#007DEA" stroke-width="0.75" stroke-miterlimit="10" stroke-linecap="round" stroke-linejoin="round"/>
<path d="M259.812 167.232C258.732 167.232 257.603 166.84 256.67 166.05C247.172 158 233.507 158.012 226.233 166.05C224.807 167.627 222.145 167.627 220.282 166.05C218.42 164.471 218.065 161.917 219.493 160.341C229.61 149.159 248.602 149.147 261.832 160.341C263.693 161.917 264.048 164.471 262.622 166.05C261.909 166.84 260.891 167.232 259.812 167.232Z" fill="white" stroke="#007DEA" stroke-width="0.75" stroke-miterlimit="10" stroke-linecap="round" stroke-linejoin="round"/>
<path d="M252.486 177.202C251.405 177.202 250.277 176.807 249.348 176.018C245.268 172.571 239.432 172.571 236.319 176.018C234.893 177.595 232.227 177.595 230.367 176.018C228.504 174.441 228.149 171.885 229.575 170.308C235.535 163.72 246.721 163.716 254.508 170.308C256.371 171.885 256.724 174.441 255.3 176.018C254.585 176.807 253.567 177.202 252.486 177.202Z" fill="white" stroke="#007DEA" stroke-width="0.75" stroke-miterlimit="10" stroke-linecap="round" stroke-linejoin="round"/>
<path d="M248.843 183.888C249.204 186.496 247.292 188.609 244.574 188.609C241.86 188.609 239.359 186.494 238.998 183.888C238.634 181.275 240.552 179.168 243.267 179.168C245.985 179.168 248.483 181.277 248.843 183.888Z" fill="white" stroke="#007DEA" stroke-width="0.75" stroke-miterlimit="10" stroke-linecap="round" stroke-linejoin="round"/>
<path d="M341.495 101.12L345.66 105.115" stroke="white" stroke-width="0.5" stroke-miterlimit="10" stroke-linecap="round" stroke-linejoin="round"/>
<path d="M345.66 101.12L341.495 105.115" stroke="white" stroke-width="0.5" stroke-miterlimit="10" stroke-linecap="round" stroke-linejoin="round"/>
<path d="M376.218 197.369L380.383 201.364" stroke="white" stroke-width="0.5" stroke-miterlimit="10" stroke-linecap="round" stroke-linejoin="round"/>
<path d="M380.383 197.369L376.218 201.364" stroke="white" stroke-width="0.5" stroke-miterlimit="10" stroke-linecap="round" stroke-linejoin="round"/>
<path d="M431.555 118.169L424.5 119.242L428.995 124.568L431.555 118.169Z" stroke="white" stroke-width="0.5" stroke-miterlimit="10" stroke-linecap="round" stroke-linejoin="round"/>
<path d="M244.333 52.1829L237.277 53.2555L241.77 58.5842L244.333 52.1829Z" stroke="white" stroke-width="0.5" stroke-miterlimit="10" stroke-linecap="round" stroke-linejoin="round"/>
<path d="M117.043 93.3396C119.386 93.3396 119.386 95.0222 121.728 95.0222C124.07 95.0222 124.07 93.3396 126.417 93.3396C128.761 93.3396 128.761 95.0222 131.105 95.0222C133.452 95.0222 133.452 93.3396 135.796 93.3396C138.145 93.3396 138.145 95.0222 140.495 95.0222C142.844 95.0222 142.844 93.3396 145.192 93.3396" stroke="white" stroke-width="0.5" stroke-miterlimit="10" stroke-linecap="round" stroke-linejoin="round"/>
<path d="M473.292 220.948C475.635 220.948 475.635 222.631 477.975 222.631C480.319 222.631 480.319 220.948 482.664 220.948C485.008 220.948 485.008 222.631 487.354 222.631C489.699 222.631 489.699 220.948 492.043 220.948C494.394 220.948 494.394 222.631 496.744 222.631C499.091 222.631 499.091 220.948 501.441 220.948" stroke="white" stroke-width="0.5" stroke-miterlimit="10" stroke-linecap="round" stroke-linejoin="round"/>
<path d="M68.292 258.309C70.6343 258.309 70.6343 259.992 72.9765 259.992C75.3188 259.992 75.3188 258.309 77.6653 258.309C80.0096 258.309 80.0096 259.992 82.354 259.992C84.7004 259.992 84.7004 258.309 87.0448 258.309C89.3933 258.309 89.3933 259.992 91.7439 259.992C94.0924 259.992 94.0924 258.309 96.4409 258.309" stroke="white" stroke-width="0.5" stroke-miterlimit="10" stroke-linecap="round" stroke-linejoin="round"/>
<path d="M68.294 169.016L67.1904 168.335C64.5676 166.714 64.5634 165.528 64.5613 165.081C64.5551 164.009 65.4612 163.137 66.5815 163.137C67.2839 163.137 67.9074 163.482 68.2711 164.007C68.6307 163.48 69.2521 163.137 69.9546 163.137C71.0727 163.137 71.9851 164.007 71.9893 165.081C71.9893 165.528 71.9955 166.712 69.3872 168.335L68.294 169.016Z" stroke="white" stroke-width="0.5" stroke-miterlimit="10" stroke-linecap="round" stroke-linejoin="round"/>
</svg>
